<svg width="25" height="25" fill="none" xmlns="http://www.w3.org/2000/svg"><path d="m3.451 20.25 1.3-3.9c-1.123-1.662-1.53-3.63-1.144-5.538.387-1.908 1.54-3.627 3.244-4.836 1.705-1.21 3.845-1.828 6.024-1.74 2.18.09 4.248.878 5.822 2.22 1.573 1.342 2.545 3.147 2.734 5.079.19 1.931-.417 3.858-1.706 5.422-1.289 1.564-3.173 2.658-5.302 3.08-2.129.422-4.358.142-6.272-.787l-4.7 1M12.451 12.25v.01M8.451 12.25v.01M16.451 12.25v.01" stroke="#686E7E" stroke-width="1.5" stroke-linecap="round" stroke-linejoin="round"/></svg>